<svg width="348" height="198" viewBox="0 0 348 198" fill="none" xmlns="http://www.w3.org/2000/svg">
<g id="Group 1">
<path id="Vector" d="M347.028 100.859C345.644 100.167 345.253 101.584 345.13 102.3C342.539 117.43 333.765 128.955 322.355 138.134C314.019 144.839 304.262 149.832 292.981 150.379C289.847 150.531 288.231 151.6 287.865 155.58C286.378 171.73 275.787 188.289 257.701 194.745C248.149 198.154 238.69 198.026 229.507 196.953C218.895 195.713 209.417 190.129 201.554 182.415C199.104 180.01 196.33 177.936 193.396 175.449C188.728 180.996 182.794 185.232 176.645 189.154C174.097 190.779 171.39 192.455 168.519 193.217C161.687 195.03 154.98 197.285 147.708 197.429C133.26 197.715 120.471 193.091 108.592 185.379C102.036 181.122 95.2397 177.069 91.664 169.568C91.2287 168.655 90.207 168.492 89.1526 168.289C79.8323 166.497 71.2097 163.456 65.1483 155.412C62.8171 152.318 61.2351 148.984 60.0053 145.392C57.4938 138.054 56.687 130.343 55.0074 122.824C53.4706 115.944 46.149 110.004 39.3066 109.273C30.1362 108.293 22.1695 112.11 13.9647 114.983C10.2162 116.296 6.72271 118.32 3.03233 119.822C0.364833 120.908 0.0464932 119.041 0.00389323 117.019C-0.0797218 113.049 1.19819 109.247 2.4228 105.676C8.76035 87.1964 21.2903 73.6143 37.9696 64.0461C48.2308 58.1597 59.3776 54.2029 71.2124 52.2163C80.7435 50.6164 90.1795 49.0955 99.925 49.1449C106.71 49.1793 112.895 51.9116 119.361 51.978C120.858 42.7799 124.366 34.5007 130.525 27.2058C138.463 17.8027 148.286 10.949 159.229 5.81653C164.233 3.46965 169.931 2.18882 175.452 1.44674C186.06 0.0208467 196.905 -0.940647 207.395 1.47702C219.299 4.22068 230.678 8.67625 240.153 16.9024C245.477 21.5252 251.454 25.4228 256.011 30.8882C257.445 32.6079 258.634 31.7766 260.224 31.3751C269.296 29.0846 278.497 26.2655 287.782 26.5459C301.374 26.9563 314.014 31.2915 324.626 40.3936C335.358 49.5984 341.144 61.6625 344.919 74.9414C345.574 77.2452 343.839 80.0127 346.671 81.6329C347.028 87.6822 347.028 94.0365 347.028 100.859Z" fill="#FCF1F1"/>
<path id="Vector_2" d="M168.755 60.955C174.581 60.1018 180.172 58.7742 185.591 61.7714C192.097 65.3696 193.703 70.109 190.551 76.7882C184.053 90.5583 171.899 94.1696 158.188 93.9136C133.953 93.4609 122.943 80.1383 126.452 56.2597C130.261 30.3316 149.625 12.3821 176.697 8.06596C204.935 3.56365 228.712 12.2015 249.323 30.8353C254.476 35.4941 259.172 36.7026 265.811 35.1073C275.211 32.8485 284.824 32.2384 294.577 33.8306C317.008 37.4928 330.593 50.6116 336.389 72.1724C344.035 100.612 333.144 126.836 308.585 139.102C296.695 145.04 284.027 146.517 271.089 143.719C249.242 138.994 237.74 113.906 248.191 94.3055C252.925 85.427 263.175 81.5393 272.56 85.0623C277.475 86.9073 278.731 88.5254 279.248 93.6784C284.242 91.1699 284.758 87.5449 280.635 83.9508C271.26 75.7797 254.669 77.4596 245.304 87.5283C236.476 97.0192 234.188 112.662 240.25 124.395C248.074 139.536 260.08 148.925 277.576 149.776C281.91 149.987 282.274 151.477 281.692 155.23C276.006 191.859 239.373 198.612 213.802 184.61C208.085 181.479 202.809 177.602 198.09 173.136C195.065 170.272 193.036 170.105 189.79 172.984C179.895 181.757 168.584 187.999 155.31 190.004C132.804 193.403 114.176 185.378 99.1638 169.23C89.2092 158.522 89.0722 140.32 97.4088 130.385C107.484 118.379 124.178 115.051 137.187 122.456C145.468 127.17 148.707 133.604 147.19 142.323C145.781 150.414 140.379 155.192 130.521 156.755C133.87 160.826 137.578 160.719 141.637 158.655C153.995 152.373 156.565 132.858 146.351 122.869C135.492 112.249 116.222 109.816 103.154 117.415C88.2994 126.054 82.7328 139.603 86.9561 156.595C87.296 157.962 88.9108 159.562 87.6196 160.729C86.2783 161.941 84.4866 160.533 82.9859 160.101C74.8806 157.769 69.5452 152.504 66.6571 144.568C64.4148 138.405 63.6182 131.95 62.3546 125.585C58.7196 107.277 44.1878 98.7832 26.4273 104.937C19.5365 107.325 12.9175 110.497 6.14744 113.323C4.92482 111.95 6.07885 110.804 6.51123 109.69C16.6769 83.5091 36.8662 68.4896 62.7537 60.59C79.8303 55.379 97.4378 54.264 115.181 57.6974C118.692 58.377 120.015 59.5548 120.07 63.4572C120.352 83.7416 130.666 95.279 150.664 98.4035C159.743 99.822 168.599 99.1624 177.232 95.9302C186.576 92.4318 192.624 85.6997 196.221 76.5713C198.294 71.3111 197.782 66.3639 193.947 62.1078C189.878 57.5916 185.157 54.3525 178.581 55.9692C175.522 56.7214 172.428 57.3834 169.328 59.1367C168.61 59.72 168.202 60.1453 168.755 60.955Z" fill="#D20404"/>
</g>
</svg>
